<mxfile host="Electron" agent="Mozilla/5.0 (Windows NT 10.0; Win64; x64) AppleWebKit/537.36 (KHTML, like Gecko) draw.io/25.0.2 Chrome/128.0.6613.186 Electron/32.2.5 Safari/537.36" version="25.0.2">
  <diagram name="Trang-1" id="ggM7F6qAlS1WG4bYhDpP">
    <mxGraphModel dx="2812" dy="2198" grid="1" gridSize="10" guides="1" tooltips="1" connect="1" arrows="1" fold="1" page="1" pageScale="1" pageWidth="827" pageHeight="1169" math="0" shadow="0">
      <root>
        <mxCell id="0" />
        <mxCell id="1" parent="0" />
        <mxCell id="Eig7zIhE5l4ogb6l4DMj-2" value="START" style="strokeWidth=2;html=1;shape=mxgraph.flowchart.start_1;whiteSpace=wrap;" parent="1" vertex="1">
          <mxGeometry x="-800" y="60" width="100" height="60" as="geometry" />
        </mxCell>
        <mxCell id="Eig7zIhE5l4ogb6l4DMj-4" value="Nhập number&lt;div&gt;dem =0&lt;/div&gt;&lt;div&gt;n =2&lt;/div&gt;&lt;div&gt;dem2&lt;/div&gt;" style="rounded=1;whiteSpace=wrap;html=1;absoluteArcSize=1;arcSize=14;strokeWidth=2;" parent="1" vertex="1">
          <mxGeometry x="-630" y="30" width="120" height="100" as="geometry" />
        </mxCell>
        <mxCell id="Eig7zIhE5l4ogb6l4DMj-5" style="edgeStyle=orthogonalEdgeStyle;rounded=0;orthogonalLoop=1;jettySize=auto;html=1;entryX=-0.012;entryY=0.606;entryDx=0;entryDy=0;entryPerimeter=0;" parent="1" source="Eig7zIhE5l4ogb6l4DMj-2" target="Eig7zIhE5l4ogb6l4DMj-4" edge="1">
          <mxGeometry relative="1" as="geometry" />
        </mxCell>
        <mxCell id="Eig7zIhE5l4ogb6l4DMj-10" style="edgeStyle=orthogonalEdgeStyle;rounded=0;orthogonalLoop=1;jettySize=auto;html=1;entryX=0.5;entryY=1;entryDx=0;entryDy=0;" parent="1" source="Eig7zIhE5l4ogb6l4DMj-6" target="Eig7zIhE5l4ogb6l4DMj-4" edge="1">
          <mxGeometry relative="1" as="geometry" />
        </mxCell>
        <mxCell id="Eig7zIhE5l4ogb6l4DMj-6" value="Vui lòng nhập lại" style="rounded=1;whiteSpace=wrap;html=1;absoluteArcSize=1;arcSize=14;strokeWidth=2;" parent="1" vertex="1">
          <mxGeometry x="-510" y="190" width="100" height="50" as="geometry" />
        </mxCell>
        <mxCell id="Eig7zIhE5l4ogb6l4DMj-9" style="edgeStyle=orthogonalEdgeStyle;rounded=0;orthogonalLoop=1;jettySize=auto;html=1;entryX=1;entryY=0.75;entryDx=0;entryDy=0;" parent="1" source="Eig7zIhE5l4ogb6l4DMj-7" target="Eig7zIhE5l4ogb6l4DMj-6" edge="1">
          <mxGeometry relative="1" as="geometry" />
        </mxCell>
        <mxCell id="Eig7zIhE5l4ogb6l4DMj-37" style="edgeStyle=orthogonalEdgeStyle;rounded=0;orthogonalLoop=1;jettySize=auto;html=1;entryX=0.5;entryY=0;entryDx=0;entryDy=0;" parent="1" source="Eig7zIhE5l4ogb6l4DMj-7" target="Eig7zIhE5l4ogb6l4DMj-12" edge="1">
          <mxGeometry relative="1" as="geometry" />
        </mxCell>
        <mxCell id="Eig7zIhE5l4ogb6l4DMj-7" value="n&amp;gt;0" style="strokeWidth=2;html=1;shape=mxgraph.flowchart.decision;whiteSpace=wrap;" parent="1" vertex="1">
          <mxGeometry x="-434.9976470588234" y="38" width="100" height="100" as="geometry" />
        </mxCell>
        <mxCell id="Eig7zIhE5l4ogb6l4DMj-11" value="false" style="text;html=1;align=center;verticalAlign=middle;resizable=0;points=[];autosize=1;strokeColor=none;fillColor=none;" parent="1" vertex="1">
          <mxGeometry x="-435" y="138" width="50" height="30" as="geometry" />
        </mxCell>
        <mxCell id="Eig7zIhE5l4ogb6l4DMj-21" style="edgeStyle=orthogonalEdgeStyle;rounded=0;orthogonalLoop=1;jettySize=auto;html=1;entryX=0.5;entryY=0;entryDx=0;entryDy=0;" parent="1" source="Eig7zIhE5l4ogb6l4DMj-12" target="Eig7zIhE5l4ogb6l4DMj-15" edge="1">
          <mxGeometry relative="1" as="geometry" />
        </mxCell>
        <mxCell id="Eig7zIhE5l4ogb6l4DMj-40" style="edgeStyle=orthogonalEdgeStyle;rounded=0;orthogonalLoop=1;jettySize=auto;html=1;entryX=0;entryY=0.5;entryDx=0;entryDy=0;exitX=0;exitY=0.5;exitDx=0;exitDy=0;" parent="1" source="Eig7zIhE5l4ogb6l4DMj-12" edge="1" target="Eig7zIhE5l4ogb6l4DMj-39">
          <mxGeometry relative="1" as="geometry">
            <mxPoint x="-215" y="748.06" as="targetPoint" />
            <mxPoint x="-144.92307692307713" y="147.9966515837105" as="sourcePoint" />
            <Array as="points">
              <mxPoint x="-240" y="90" />
              <mxPoint x="-240" y="320" />
              <mxPoint x="-390" y="320" />
              <mxPoint x="-390" y="748" />
              <mxPoint x="-205" y="748" />
              <mxPoint x="-205" y="750" />
            </Array>
          </mxGeometry>
        </mxCell>
        <mxCell id="Eig7zIhE5l4ogb6l4DMj-12" value="While(dem&amp;lt;number)" style="rhombus;whiteSpace=wrap;html=1;" parent="1" vertex="1">
          <mxGeometry x="-220" y="20" width="170" height="140" as="geometry" />
        </mxCell>
        <mxCell id="Eig7zIhE5l4ogb6l4DMj-14" value="true" style="text;html=1;align=center;verticalAlign=middle;resizable=0;points=[];autosize=1;strokeColor=none;fillColor=none;" parent="1" vertex="1">
          <mxGeometry x="-300" y="48" width="40" height="30" as="geometry" />
        </mxCell>
        <mxCell id="Eig7zIhE5l4ogb6l4DMj-22" style="edgeStyle=orthogonalEdgeStyle;rounded=0;orthogonalLoop=1;jettySize=auto;html=1;entryX=0.5;entryY=0;entryDx=0;entryDy=0;" parent="1" source="Eig7zIhE5l4ogb6l4DMj-15" target="Eig7zIhE5l4ogb6l4DMj-16" edge="1">
          <mxGeometry relative="1" as="geometry" />
        </mxCell>
        <mxCell id="Eig7zIhE5l4ogb6l4DMj-15" value="dem2=1" style="rounded=1;whiteSpace=wrap;html=1;absoluteArcSize=1;arcSize=14;strokeWidth=2;" parent="1" vertex="1">
          <mxGeometry x="-185" y="210" width="100" height="50" as="geometry" />
        </mxCell>
        <mxCell id="Eig7zIhE5l4ogb6l4DMj-23" style="edgeStyle=orthogonalEdgeStyle;rounded=0;orthogonalLoop=1;jettySize=auto;html=1;" parent="1" source="Eig7zIhE5l4ogb6l4DMj-16" target="Eig7zIhE5l4ogb6l4DMj-18" edge="1">
          <mxGeometry relative="1" as="geometry" />
        </mxCell>
        <mxCell id="Eig7zIhE5l4ogb6l4DMj-16" value="i = 2; i*i &amp;lt;= n; i++" style="rounded=1;whiteSpace=wrap;html=1;absoluteArcSize=1;arcSize=14;strokeWidth=2;" parent="1" vertex="1">
          <mxGeometry x="-185" y="310" width="100" height="50" as="geometry" />
        </mxCell>
        <mxCell id="Eig7zIhE5l4ogb6l4DMj-24" style="edgeStyle=orthogonalEdgeStyle;rounded=0;orthogonalLoop=1;jettySize=auto;html=1;entryX=0.5;entryY=0;entryDx=0;entryDy=0;" parent="1" source="Eig7zIhE5l4ogb6l4DMj-18" target="Eig7zIhE5l4ogb6l4DMj-19" edge="1">
          <mxGeometry relative="1" as="geometry" />
        </mxCell>
        <mxCell id="Eig7zIhE5l4ogb6l4DMj-18" value="n%i==0" style="rhombus;whiteSpace=wrap;html=1;" parent="1" vertex="1">
          <mxGeometry x="-175" y="400" width="80" height="80" as="geometry" />
        </mxCell>
        <mxCell id="Eig7zIhE5l4ogb6l4DMj-25" style="edgeStyle=orthogonalEdgeStyle;rounded=0;orthogonalLoop=1;jettySize=auto;html=1;" parent="1" source="Eig7zIhE5l4ogb6l4DMj-19" target="Eig7zIhE5l4ogb6l4DMj-20" edge="1">
          <mxGeometry relative="1" as="geometry" />
        </mxCell>
        <mxCell id="6OXN9-codlxXAP9FTkyE-2" style="edgeStyle=orthogonalEdgeStyle;rounded=0;orthogonalLoop=1;jettySize=auto;html=1;entryX=1;entryY=0.5;entryDx=0;entryDy=0;" edge="1" parent="1" source="Eig7zIhE5l4ogb6l4DMj-19" target="Eig7zIhE5l4ogb6l4DMj-28">
          <mxGeometry relative="1" as="geometry" />
        </mxCell>
        <mxCell id="Eig7zIhE5l4ogb6l4DMj-19" value="dem2=0" style="rounded=1;whiteSpace=wrap;html=1;absoluteArcSize=1;arcSize=14;strokeWidth=2;" parent="1" vertex="1">
          <mxGeometry x="-185" y="520" width="100" height="50" as="geometry" />
        </mxCell>
        <mxCell id="Eig7zIhE5l4ogb6l4DMj-33" style="edgeStyle=orthogonalEdgeStyle;rounded=0;orthogonalLoop=1;jettySize=auto;html=1;entryX=1;entryY=0.5;entryDx=0;entryDy=0;" parent="1" source="Eig7zIhE5l4ogb6l4DMj-20" edge="1" target="Eig7zIhE5l4ogb6l4DMj-12">
          <mxGeometry relative="1" as="geometry">
            <mxPoint x="50" y="320" as="targetPoint" />
            <Array as="points">
              <mxPoint x="190" y="625" />
              <mxPoint x="190" y="90" />
            </Array>
          </mxGeometry>
        </mxCell>
        <mxCell id="Eig7zIhE5l4ogb6l4DMj-20" value="n++" style="rounded=1;whiteSpace=wrap;html=1;absoluteArcSize=1;arcSize=14;strokeWidth=2;" parent="1" vertex="1">
          <mxGeometry x="-185" y="610" width="100" height="50" as="geometry" />
        </mxCell>
        <mxCell id="Eig7zIhE5l4ogb6l4DMj-31" style="edgeStyle=orthogonalEdgeStyle;rounded=0;orthogonalLoop=1;jettySize=auto;html=1;entryX=0.5;entryY=0;entryDx=0;entryDy=0;" parent="1" source="Eig7zIhE5l4ogb6l4DMj-28" target="Eig7zIhE5l4ogb6l4DMj-30" edge="1">
          <mxGeometry relative="1" as="geometry" />
        </mxCell>
        <mxCell id="Eig7zIhE5l4ogb6l4DMj-28" value="dem2=1" style="rhombus;whiteSpace=wrap;html=1;" parent="1" vertex="1">
          <mxGeometry x="-310" y="450" width="80" height="80" as="geometry" />
        </mxCell>
        <mxCell id="6OXN9-codlxXAP9FTkyE-3" style="edgeStyle=orthogonalEdgeStyle;rounded=0;orthogonalLoop=1;jettySize=auto;html=1;entryX=0;entryY=0.5;entryDx=0;entryDy=0;" edge="1" parent="1" source="Eig7zIhE5l4ogb6l4DMj-30" target="Eig7zIhE5l4ogb6l4DMj-20">
          <mxGeometry relative="1" as="geometry" />
        </mxCell>
        <mxCell id="Eig7zIhE5l4ogb6l4DMj-30" value="printf n&lt;div&gt;dem++&lt;/div&gt;" style="rounded=1;whiteSpace=wrap;html=1;absoluteArcSize=1;arcSize=14;strokeWidth=2;" parent="1" vertex="1">
          <mxGeometry x="-370" y="610" width="100" height="50" as="geometry" />
        </mxCell>
        <mxCell id="Eig7zIhE5l4ogb6l4DMj-39" value="END" style="ellipse;whiteSpace=wrap;html=1;" parent="1" vertex="1">
          <mxGeometry x="-200" y="710" width="120" height="80" as="geometry" />
        </mxCell>
        <mxCell id="Eig7zIhE5l4ogb6l4DMj-45" value="false" style="text;html=1;align=center;verticalAlign=middle;resizable=0;points=[];autosize=1;strokeColor=none;fillColor=none;" parent="1" vertex="1">
          <mxGeometry x="-240" y="110" width="50" height="30" as="geometry" />
        </mxCell>
        <mxCell id="Eig7zIhE5l4ogb6l4DMj-46" value="true" style="text;html=1;align=center;verticalAlign=middle;resizable=0;points=[];autosize=1;strokeColor=none;fillColor=none;" parent="1" vertex="1">
          <mxGeometry x="-120" y="158" width="40" height="30" as="geometry" />
        </mxCell>
        <mxCell id="6OXN9-codlxXAP9FTkyE-4" style="edgeStyle=orthogonalEdgeStyle;rounded=0;orthogonalLoop=1;jettySize=auto;html=1;entryX=0.145;entryY=0.429;entryDx=0;entryDy=0;entryPerimeter=0;" edge="1" parent="1" source="Eig7zIhE5l4ogb6l4DMj-4" target="Eig7zIhE5l4ogb6l4DMj-7">
          <mxGeometry relative="1" as="geometry" />
        </mxCell>
      </root>
    </mxGraphModel>
  </diagram>
</mxfile>
